<svg xmlns:svg="http://www.w3.org/2000/svg" xmlns="http://www.w3.org/2000/svg" version="1.1" x="0" y="0" width="61.8" height="100" viewBox="0 0 61.8 100" enable-background="new 0 0 100 100" xml:space="preserve">
<style>.s0{fill:#000;}</style>
<path d="M60.3 1.5V98.5H1.5V1.5H60.3M61.8 0H0V100H61.8V0l0 0zM41.1 14 41.1 14c4.5 3.3 7.3 8.6 7.3 14.3 0 5.8-2.8 11.1-7.5 14.5H21c-4.7-3.4-7.5-8.6-7.5-14.4 0-5.7 2.7-11.2 7.2-14.2h20.3m0.7-1.5H20.2c-5 3.1-8.3 9.3-8.3 15.9 0 6.8 3.4 12.3 8.6 16.1H41.4C46.6 40.8 50 35.3 50 28.5 50 21.9 46.7 15.6 41.7 12.6l0 0z" fill="#000"/>
<rect x="22.6" y="20.6" width="2.3" height="9.2" fill="#000"/>
<rect x="36.8" y="21.4" width="2.3" height="7.6" fill="#000"/>
<path d="m30.9 35.1c-1.9 0-3.4 0.8-3.4 2.3v3.5h6.9v-3.5c0-1.5-1.5-2.3-3.4-2.3zM41.1 56.7 41.1 56.7c4.5 3.3 7.3 8.6 7.3 14.3 0 5.8-2.8 11.1-7.5 14.5H21c-4.7-3.4-7.5-8.6-7.5-14.4 0-5.7 2.7-11.2 7.2-14.2h20.3m0.7-1.5H20.2c-5 3.1-8.3 9.3-8.3 15.9 0 6.8 3.4 12.3 8.6 16.1H41.4C46.6 83.6 50 78 50 71.3 50 64.7 46.7 58.4 41.7 55.3l0 0z" fill="#000"/>
<rect x="22.6" y="63.4" width="2.3" height="9.2" fill="#000"/>
<rect x="36.8" y="64.1" width="2.3" height="7.6" fill="#000"/>
<path d="m30.9 77.9c-1.9 0-3.4 0.8-3.4 2.3v3.5h6.9v-3.5c0-1.5-1.5-2.3-3.4-2.3z" fill="#000"/>
</svg>